<?xml version="1.0" encoding="utf-8"?>
<!-- Generator: Adobe Illustrator 16.0.0, SVG Export Plug-In . SVG Version: 6.00 Build 0)  -->
<!DOCTYPE svg PUBLIC "-//W3C//DTD SVG 1.1 Tiny//EN" "http://www.w3.org/Graphics/SVG/1.1/DTD/svg11-tiny.dtd">
<svg version="1.1" baseProfile="tiny" id="Layer_1" xmlns="http://www.w3.org/2000/svg" xmlns:xlink="http://www.w3.org/1999/xlink"
	 x="0px" y="0px" width="467.276px" height="485.562px" viewBox="0 0 467.276 485.562" xml:space="preserve">
<path d="M351.689,189.528c0,5.811-4.117,12.942-9.149,15.847l-99.017,57.167c-5.032,2.905-13.267,2.905-18.299,0l-99.016-57.167
	c-5.032-2.905-9.149-10.036-9.149-15.847V75.194c0-5.811,4.117-12.942,9.149-15.847l99.016-57.167
	c5.032-2.905,13.267-2.905,18.299,0l99.017,57.167c5.032,2.905,9.149,10.037,9.149,15.847V189.528z"/>
<rect x="137.124" y="406.236" width="113.5" height="17.5"/>
<rect x="244.124" y="417.361" fill="#7AB9E8" width="46" height="51"/>
<path fill-rule="evenodd" d="M357.869,294.548c-0.07-0.08-0.136-0.164-0.2-0.25H125.91c-0.851,6.123-2.241,11.633-2.258,17.145
	c-0.166,54.164-0.075,108.328-0.138,162.494c-0.006,5.314,1.529,9.436,6.693,11.625h161c3.861-1.846,6.538-4.621,6.593-9.137
	c0.085-7,0.242-14.008-0.047-20.996c-0.244-5.9-3.94-9.281-9.122-9.072c-4.526,0.182-7.494,3.721-7.652,9.369
	c-0.115,4.104-0.022,8.215-0.022,12.445H140.326c0-13.91-0.099-27.389,0.032-40.867c0.1-10.281-1.687-9.207,9.404-9.221
	c44.831-0.051,89.661-0.016,134.49,0.191c6.888,0.031,11.357-2.211,14.82-8.51c16.927-30.779,34.247-61.344,51.47-91.959
	C354.595,310.603,359.344,303.675,357.869,294.548z M185.748,331.167c-0.621-11.578-1.279-23.832-1.961-36.508
	c12.113,0,25.514,0,38.522,0C210.037,306.914,197.76,319.171,185.748,331.167z"/>
<rect x="140.374" y="418.26" fill="#98C8ED" width="109.355" height="49.801"/>
<circle fill="#EDEDED" cx="179.749" cy="439.986" r="8.75"/>
<path d="M441.967,243.672h-113h-9.659h-58.341h-54.659h-58.341h-9.659h-113C11.33,243.672,0,255.004,0,268.98
	c0,13.976,11.33,25.308,25.309,25.308h113h9.659h58.341h54.659h58.341h9.659h113c13.979,0,25.309-11.332,25.309-25.308
	C467.276,255.004,455.946,243.672,441.967,243.672z"/>
<path fill-rule="evenodd" fill="#EDEDED" d="M233.207,260.507c67.972,0,135.943-0.001,203.915,0.001
	c8.608,0,12.716,2.809,12.601,8.588c-0.112,5.625-4.159,8.376-12.408,8.378c-136.11,0.023-272.22,0.045-408.331,0.055
	c-1.661,0-3.354,0.035-4.976-0.258c-4.578-0.826-7.514-4.421-7.303-8.705c0.216-4.374,3.372-7.669,8.091-7.967
	c4.15-0.262,8.326-0.142,12.49-0.143c65.307-0.006,130.613-0.004,195.92-0.004C233.207,260.471,233.207,260.488,233.207,260.507z"/>
<g>
	<path fill-rule="evenodd" fill="#F7CEBC" d="M140.299,400.75c0-3.57,0-6.723,0-9.873c0.001-26.984,0.011-53.967-0.001-80.951
		c-0.003-5.928,2.002-10.828,7.362-13.779c4.75-2.617,9.617-2.439,14.232,0.447c4.656,2.914,6.534,7.338,6.53,12.707
		c-0.009,12.658,0.004,25.318,0.009,37.977c0,1.5,0,3,0.011,4.498c0.03,4.137,1.327,7.633,5.438,9.27
		c4.103,1.633,7.386-0.027,10.319-2.971c16.932-16.99,33.914-33.93,50.847-50.916c5.512-5.531,11.72-9.912,19.458-11.568
		c3.39-0.725,6.915-1.121,10.381-1.135c23.152-0.086,46.305-0.057,69.458,0.002c6.769,0.018,8.317,2.803,4.942,8.832
		c-17.564,31.373-35.123,62.752-52.871,94.021c-0.996,1.756-3.663,3.639-5.561,3.646c-45.805,0.219-91.61,0.189-137.416,0.188
		C142.631,401.144,141.825,400.947,140.299,400.75z"/>
	<path fill-rule="evenodd" fill="#F7BA9E" d="M335.968,294.435c-8.748-0.021-17.495-0.032-26.243-0.041
		c-19.927,35.592-39.866,71.18-59.996,106.658c10.916-0.027,21.833-0.064,32.749-0.117c1.898-0.008,4.564-1.891,5.561-3.646
		c17.748-31.27,35.307-62.648,52.871-94.021C344.285,297.238,342.736,294.453,335.968,294.435z"/>
</g>
<path display="none" fill="#FFFFFF" d="M235.02-22.801l128,72.401v144.835l-128,72.401l-128-72.401V49.601L235.02-22.801z"/>
<g>
	<path fill="#FFFFFF" d="M234.874,12.842l105.355,59.592v119.21l-105.355,59.592l-105.355-59.592V72.434L234.874,12.842z"/>
	<g>
		<path fill="#8ED6FB" d="M333.662,195.317l-94.708,53.578v-41.721l59.01-32.469L333.662,195.317L333.662,195.317z M340.148,189.451
			V77.421l-34.643,20.022v72.016L340.148,189.451L340.148,189.451z M135.927,195.317l94.708,53.578v-41.721l-59.041-32.469
			L135.927,195.317z M129.439,189.451V77.421l34.643,20.022v72.016L129.439,189.451z M133.505,70.158l97.129-54.943v40.323
			l-62.238,34.238l-0.497,0.28L133.505,70.158z M336.082,70.158l-97.128-54.943v40.323l62.239,34.208l0.497,0.279L336.082,70.158
			L336.082,70.158z"/>
		<path fill="#1C78C0" d="M230.635,197.677l-58.234-32.035v-63.417l58.234,33.618V197.677z M238.953,197.677l58.234-32.005v-63.448
			l-58.234,33.618V197.677z M176.342,94.898l58.451-32.128l58.452,32.128l-58.452,33.742L176.342,94.898z"/>
	</g>
</g>
</svg>
